<mxfile host="app.diagrams.net" agent="Mozilla/5.0 (Windows NT 10.0; Win64; x64) AppleWebKit/537.36 (KHTML, like Gecko) Chrome/129.0.0.0 Safari/537.36" version="24.7.17">
  <diagram name="Página-1" id="F3jqIL1fE_TCKNK_gXTw">
    <mxGraphModel grid="1" page="1" gridSize="10" guides="1" tooltips="1" connect="1" arrows="1" fold="1" pageScale="1" pageWidth="827" pageHeight="1169" math="0" shadow="0">
      <root>
        <mxCell id="0" />
        <mxCell id="1" parent="0" />
        <mxCell id="avgygCNMJ7lH7D7TW448-25" style="rounded=0;orthogonalLoop=1;jettySize=auto;html=1;exitX=0.5;exitY=0.5;exitDx=0;exitDy=0;exitPerimeter=0;entryX=0;entryY=0.5;entryDx=0;entryDy=0;" edge="1" parent="1" source="avgygCNMJ7lH7D7TW448-1" target="avgygCNMJ7lH7D7TW448-5">
          <mxGeometry relative="1" as="geometry" />
        </mxCell>
        <mxCell id="avgygCNMJ7lH7D7TW448-26" style="rounded=0;orthogonalLoop=1;jettySize=auto;html=1;exitX=0.5;exitY=0.5;exitDx=0;exitDy=0;exitPerimeter=0;entryX=0;entryY=0.5;entryDx=0;entryDy=0;" edge="1" parent="1" source="avgygCNMJ7lH7D7TW448-1" target="avgygCNMJ7lH7D7TW448-6">
          <mxGeometry relative="1" as="geometry" />
        </mxCell>
        <mxCell id="avgygCNMJ7lH7D7TW448-27" style="edgeStyle=orthogonalEdgeStyle;rounded=0;orthogonalLoop=1;jettySize=auto;html=1;exitX=0.5;exitY=0.5;exitDx=0;exitDy=0;exitPerimeter=0;" edge="1" parent="1" source="avgygCNMJ7lH7D7TW448-1" target="avgygCNMJ7lH7D7TW448-7">
          <mxGeometry relative="1" as="geometry" />
        </mxCell>
        <mxCell id="avgygCNMJ7lH7D7TW448-28" style="rounded=0;orthogonalLoop=1;jettySize=auto;html=1;exitX=0.5;exitY=0.5;exitDx=0;exitDy=0;exitPerimeter=0;entryX=0;entryY=0.5;entryDx=0;entryDy=0;" edge="1" parent="1" source="avgygCNMJ7lH7D7TW448-1" target="avgygCNMJ7lH7D7TW448-8">
          <mxGeometry relative="1" as="geometry" />
        </mxCell>
        <mxCell id="avgygCNMJ7lH7D7TW448-29" value="" style="rounded=0;orthogonalLoop=1;jettySize=auto;html=1;exitX=0.5;exitY=0.5;exitDx=0;exitDy=0;exitPerimeter=0;entryX=0;entryY=0.5;entryDx=0;entryDy=0;" edge="1" parent="1" source="avgygCNMJ7lH7D7TW448-1" target="avgygCNMJ7lH7D7TW448-15">
          <mxGeometry relative="1" as="geometry" />
        </mxCell>
        <mxCell id="avgygCNMJ7lH7D7TW448-30" style="rounded=0;orthogonalLoop=1;jettySize=auto;html=1;exitX=0.5;exitY=0.5;exitDx=0;exitDy=0;exitPerimeter=0;entryX=0;entryY=0.5;entryDx=0;entryDy=0;" edge="1" parent="1" source="avgygCNMJ7lH7D7TW448-1" target="avgygCNMJ7lH7D7TW448-16">
          <mxGeometry relative="1" as="geometry" />
        </mxCell>
        <mxCell id="avgygCNMJ7lH7D7TW448-31" style="rounded=0;orthogonalLoop=1;jettySize=auto;html=1;exitX=0.5;exitY=0.5;exitDx=0;exitDy=0;exitPerimeter=0;entryX=0;entryY=0.5;entryDx=0;entryDy=0;" edge="1" parent="1" source="avgygCNMJ7lH7D7TW448-1" target="avgygCNMJ7lH7D7TW448-4">
          <mxGeometry relative="1" as="geometry" />
        </mxCell>
        <mxCell id="avgygCNMJ7lH7D7TW448-1" value="Usuario" style="shape=umlActor;verticalLabelPosition=bottom;verticalAlign=top;html=1;outlineConnect=0;strokeColor=#FF3333;" vertex="1" parent="1">
          <mxGeometry x="150" y="450" width="30" height="60" as="geometry" />
        </mxCell>
        <mxCell id="avgygCNMJ7lH7D7TW448-3" value="" style="swimlane;startSize=0;" vertex="1" parent="1">
          <mxGeometry x="200" y="40" width="420" height="900" as="geometry" />
        </mxCell>
        <mxCell id="avgygCNMJ7lH7D7TW448-4" value="Login" style="ellipse;whiteSpace=wrap;html=1;fillColor=#9AC7BF;" vertex="1" parent="avgygCNMJ7lH7D7TW448-3">
          <mxGeometry x="150" y="30" width="120" height="80" as="geometry" />
        </mxCell>
        <mxCell id="avgygCNMJ7lH7D7TW448-5" value="Finanzas" style="ellipse;whiteSpace=wrap;html=1;fillColor=#9AC7BF;" vertex="1" parent="avgygCNMJ7lH7D7TW448-3">
          <mxGeometry x="154" y="150" width="120" height="80" as="geometry" />
        </mxCell>
        <mxCell id="avgygCNMJ7lH7D7TW448-6" value="Inventario" style="ellipse;whiteSpace=wrap;html=1;fillColor=#9AC7BF;" vertex="1" parent="avgygCNMJ7lH7D7TW448-3">
          <mxGeometry x="154" y="280" width="120" height="80" as="geometry" />
        </mxCell>
        <mxCell id="avgygCNMJ7lH7D7TW448-7" value="Ventas y CRM" style="ellipse;whiteSpace=wrap;html=1;fillColor=#9AC7BF;" vertex="1" parent="avgygCNMJ7lH7D7TW448-3">
          <mxGeometry x="160" y="400" width="120" height="80" as="geometry" />
        </mxCell>
        <mxCell id="avgygCNMJ7lH7D7TW448-8" value="RRHH" style="ellipse;whiteSpace=wrap;html=1;fillColor=#9AC7BF;" vertex="1" parent="avgygCNMJ7lH7D7TW448-3">
          <mxGeometry x="160" y="520" width="120" height="80" as="geometry" />
        </mxCell>
        <mxCell id="avgygCNMJ7lH7D7TW448-15" value="Compra y proveedores" style="ellipse;whiteSpace=wrap;html=1;fillColor=#9AC7BF;" vertex="1" parent="avgygCNMJ7lH7D7TW448-3">
          <mxGeometry x="160" y="640" width="120" height="80" as="geometry" />
        </mxCell>
        <mxCell id="avgygCNMJ7lH7D7TW448-16" value="Reportes y análisis" style="ellipse;whiteSpace=wrap;html=1;fillColor=#9AC7BF;" vertex="1" parent="avgygCNMJ7lH7D7TW448-3">
          <mxGeometry x="160" y="760" width="120" height="80" as="geometry" />
        </mxCell>
        <mxCell id="avgygCNMJ7lH7D7TW448-33" style="rounded=0;orthogonalLoop=1;jettySize=auto;html=1;exitX=0.5;exitY=0.5;exitDx=0;exitDy=0;exitPerimeter=0;entryX=1;entryY=0.5;entryDx=0;entryDy=0;" edge="1" parent="1" source="avgygCNMJ7lH7D7TW448-18" target="avgygCNMJ7lH7D7TW448-4">
          <mxGeometry relative="1" as="geometry" />
        </mxCell>
        <mxCell id="avgygCNMJ7lH7D7TW448-34" style="rounded=0;orthogonalLoop=1;jettySize=auto;html=1;exitX=0.5;exitY=0.5;exitDx=0;exitDy=0;exitPerimeter=0;entryX=1;entryY=0.5;entryDx=0;entryDy=0;" edge="1" parent="1" source="avgygCNMJ7lH7D7TW448-18" target="avgygCNMJ7lH7D7TW448-5">
          <mxGeometry relative="1" as="geometry" />
        </mxCell>
        <mxCell id="avgygCNMJ7lH7D7TW448-35" style="rounded=0;orthogonalLoop=1;jettySize=auto;html=1;exitX=0.5;exitY=0.5;exitDx=0;exitDy=0;exitPerimeter=0;entryX=1;entryY=0.5;entryDx=0;entryDy=0;" edge="1" parent="1" source="avgygCNMJ7lH7D7TW448-18" target="avgygCNMJ7lH7D7TW448-6">
          <mxGeometry relative="1" as="geometry" />
        </mxCell>
        <mxCell id="avgygCNMJ7lH7D7TW448-36" style="rounded=0;orthogonalLoop=1;jettySize=auto;html=1;exitX=0.5;exitY=0.5;exitDx=0;exitDy=0;exitPerimeter=0;" edge="1" parent="1" source="avgygCNMJ7lH7D7TW448-18" target="avgygCNMJ7lH7D7TW448-7">
          <mxGeometry relative="1" as="geometry" />
        </mxCell>
        <mxCell id="avgygCNMJ7lH7D7TW448-37" style="rounded=0;orthogonalLoop=1;jettySize=auto;html=1;exitX=0.5;exitY=0.5;exitDx=0;exitDy=0;exitPerimeter=0;entryX=1;entryY=0.5;entryDx=0;entryDy=0;" edge="1" parent="1" source="avgygCNMJ7lH7D7TW448-18" target="avgygCNMJ7lH7D7TW448-8">
          <mxGeometry relative="1" as="geometry" />
        </mxCell>
        <mxCell id="avgygCNMJ7lH7D7TW448-38" style="rounded=0;orthogonalLoop=1;jettySize=auto;html=1;exitX=0.5;exitY=0.5;exitDx=0;exitDy=0;exitPerimeter=0;entryX=1;entryY=0.5;entryDx=0;entryDy=0;" edge="1" parent="1" source="avgygCNMJ7lH7D7TW448-18" target="avgygCNMJ7lH7D7TW448-15">
          <mxGeometry relative="1" as="geometry" />
        </mxCell>
        <mxCell id="avgygCNMJ7lH7D7TW448-39" style="rounded=0;orthogonalLoop=1;jettySize=auto;html=1;exitX=0.5;exitY=0.5;exitDx=0;exitDy=0;exitPerimeter=0;entryX=1;entryY=0.5;entryDx=0;entryDy=0;" edge="1" parent="1" source="avgygCNMJ7lH7D7TW448-18" target="avgygCNMJ7lH7D7TW448-16">
          <mxGeometry relative="1" as="geometry" />
        </mxCell>
        <mxCell id="avgygCNMJ7lH7D7TW448-18" value="Sistema" style="shape=umlActor;verticalLabelPosition=bottom;verticalAlign=top;html=1;outlineConnect=0;strokeColor=#FF3333;" vertex="1" parent="1">
          <mxGeometry x="640" y="450" width="30" height="60" as="geometry" />
        </mxCell>
        <mxCell id="avgygCNMJ7lH7D7TW448-40" value="&lt;font style=&quot;font-size: 24px;&quot;&gt;General&lt;/font&gt;" style="rounded=0;whiteSpace=wrap;html=1;" vertex="1" parent="1">
          <mxGeometry x="200" y="-20" width="420" height="60" as="geometry" />
        </mxCell>
      </root>
    </mxGraphModel>
  </diagram>
</mxfile>
